<?xml version="1.0" encoding="utf-8"?>
<!-- Generator: Adobe Illustrator 23.0.2, SVG Export Plug-In . SVG Version: 6.00 Build 0)  -->
<svg version="1.1" id="图层_1" xmlns="http://www.w3.org/2000/svg" xmlns:xlink="http://www.w3.org/1999/xlink" x="0px" y="0px"
	 viewBox="0 0 50 50" style="enable-background:new 0 0 50 50;" xml:space="preserve">
<style type="text/css">
	.st0{fill:#FF8197;}
</style>
<g transform="matrix(1 0 0 1 0 0)">
	<g>
		<path class="st0" d="M25,3.2C13,3.2,3.2,13,3.2,25c0,2.5,0.4,4.9,1.3,7.3l14.9-14.9c3.7-3.7,9.8-3.7,13.5,0
			c3.7,3.7,3.7,9.8,0,13.5L18,45.7c2.3,0.8,4.6,1.1,7,1.1c12,0,21.8-9.8,21.8-21.8C46.8,13,37,3.2,25,3.2z"/>
		<path class="st0" d="M19,23.3c-1.7,1.7-1.9,5.4,0.2,7.6c2.2,2.2,5.9,2,7.6,0.2c1.7-1.7,0.8-4.4-1.3-6.5
			C23.4,22.5,20.7,21.6,19,23.3z"/>
		<path class="st0" d="M24.4,20.8c0.9-0.9,0.9-2.3,0-3.2c-0.9-0.9-2.3-0.9-3.2,0c-0.9,0.9-0.9,2.3,0,3.2
			C22.1,21.7,23.5,21.7,24.4,20.8z"/>
		<path class="st0" d="M30.5,21.8c0,1.3-1,2.3-2.3,2.3C27,24,26,23,26,21.8c0-1.3,1-2.3,2.3-2.3C29.5,19.5,30.5,20.5,30.5,21.8z"/>
		<path class="st0" d="M32.7,25.9c-0.9-0.9-2.3-0.9-3.2,0c-0.9,0.9-0.9,2.3,0,3.2c0.9,0.9,2.3,0.9,3.2,0
			C33.6,28.2,33.6,26.8,32.7,25.9z"/>
	</g>
</g>
</svg>
